<mxfile host="app.diagrams.net" modified="2023-10-24T06:04:30.662Z" agent="Mozilla/5.0 (Windows NT 10.0; Win64; x64) AppleWebKit/537.36 (KHTML, like Gecko) Chrome/118.0.0.0 Safari/537.36" etag="atwJJWIpMPpUzdvmko7L" version="22.0.6" type="github">
  <diagram name="第 1 页" id="8aUJVR74juzvUXcDv9JA">
    <mxGraphModel dx="724" dy="374" grid="1" gridSize="10" guides="1" tooltips="1" connect="1" arrows="1" fold="1" page="1" pageScale="1" pageWidth="827" pageHeight="1169" math="0" shadow="0">
      <root>
        <mxCell id="0" />
        <mxCell id="1" parent="0" />
        <mxCell id="yom7Caml82Irb-u9NkC1-1" style="edgeStyle=orthogonalEdgeStyle;orthogonalLoop=1;jettySize=auto;html=1;exitX=0;exitY=1;exitDx=0;exitDy=0;entryX=1;entryY=0;entryDx=0;entryDy=0;curved=1;endArrow=none;endFill=0;" edge="1" parent="1" source="yom7Caml82Irb-u9NkC1-3" target="yom7Caml82Irb-u9NkC1-5">
          <mxGeometry relative="1" as="geometry" />
        </mxCell>
        <mxCell id="yom7Caml82Irb-u9NkC1-2" style="edgeStyle=orthogonalEdgeStyle;orthogonalLoop=1;jettySize=auto;html=1;exitX=1;exitY=1;exitDx=0;exitDy=0;entryX=0;entryY=0;entryDx=0;entryDy=0;curved=1;endArrow=none;endFill=0;" edge="1" parent="1" source="yom7Caml82Irb-u9NkC1-3" target="yom7Caml82Irb-u9NkC1-6">
          <mxGeometry relative="1" as="geometry" />
        </mxCell>
        <mxCell id="yom7Caml82Irb-u9NkC1-3" value="A" style="ellipse;whiteSpace=wrap;html=1;aspect=fixed;" vertex="1" parent="1">
          <mxGeometry x="150" y="60" width="40" height="40" as="geometry" />
        </mxCell>
        <mxCell id="yom7Caml82Irb-u9NkC1-4" style="edgeStyle=orthogonalEdgeStyle;orthogonalLoop=1;jettySize=auto;html=1;exitX=0.5;exitY=1;exitDx=0;exitDy=0;entryX=0.5;entryY=0;entryDx=0;entryDy=0;curved=1;endArrow=none;endFill=0;" edge="1" parent="1" source="yom7Caml82Irb-u9NkC1-5" target="yom7Caml82Irb-u9NkC1-7">
          <mxGeometry relative="1" as="geometry" />
        </mxCell>
        <mxCell id="yom7Caml82Irb-u9NkC1-5" value="B" style="ellipse;whiteSpace=wrap;html=1;aspect=fixed;" vertex="1" parent="1">
          <mxGeometry x="110" y="110" width="40" height="40" as="geometry" />
        </mxCell>
        <mxCell id="yom7Caml82Irb-u9NkC1-6" value="C" style="ellipse;whiteSpace=wrap;html=1;aspect=fixed;" vertex="1" parent="1">
          <mxGeometry x="190" y="110" width="40" height="40" as="geometry" />
        </mxCell>
        <mxCell id="yom7Caml82Irb-u9NkC1-7" value="D" style="ellipse;whiteSpace=wrap;html=1;aspect=fixed;" vertex="1" parent="1">
          <mxGeometry x="90" y="170" width="40" height="40" as="geometry" />
        </mxCell>
        <mxCell id="yom7Caml82Irb-u9NkC1-8" value="A" style="rounded=0;whiteSpace=wrap;html=1;" vertex="1" parent="1">
          <mxGeometry x="379" y="50" width="40" height="30" as="geometry" />
        </mxCell>
        <mxCell id="yom7Caml82Irb-u9NkC1-20" style="edgeStyle=orthogonalEdgeStyle;orthogonalLoop=1;jettySize=auto;html=1;exitX=0.5;exitY=1;exitDx=0;exitDy=0;entryX=0.5;entryY=0;entryDx=0;entryDy=0;curved=1;" edge="1" parent="1" source="yom7Caml82Irb-u9NkC1-9" target="yom7Caml82Irb-u9NkC1-11">
          <mxGeometry relative="1" as="geometry" />
        </mxCell>
        <mxCell id="yom7Caml82Irb-u9NkC1-9" value="" style="rounded=0;whiteSpace=wrap;html=1;" vertex="1" parent="1">
          <mxGeometry x="419" y="50" width="40" height="30" as="geometry" />
        </mxCell>
        <mxCell id="yom7Caml82Irb-u9NkC1-10" value="^" style="rounded=0;whiteSpace=wrap;html=1;" vertex="1" parent="1">
          <mxGeometry x="459" y="50" width="40" height="30" as="geometry" />
        </mxCell>
        <mxCell id="yom7Caml82Irb-u9NkC1-11" value="B" style="rounded=0;whiteSpace=wrap;html=1;" vertex="1" parent="1">
          <mxGeometry x="299" y="135" width="40" height="30" as="geometry" />
        </mxCell>
        <mxCell id="yom7Caml82Irb-u9NkC1-23" style="edgeStyle=orthogonalEdgeStyle;orthogonalLoop=1;jettySize=auto;html=1;exitX=0.5;exitY=1;exitDx=0;exitDy=0;entryX=0.5;entryY=0;entryDx=0;entryDy=0;curved=1;" edge="1" parent="1" source="yom7Caml82Irb-u9NkC1-12" target="yom7Caml82Irb-u9NkC1-17">
          <mxGeometry relative="1" as="geometry" />
        </mxCell>
        <mxCell id="yom7Caml82Irb-u9NkC1-12" value="" style="rounded=0;whiteSpace=wrap;html=1;" vertex="1" parent="1">
          <mxGeometry x="339" y="135" width="40" height="30" as="geometry" />
        </mxCell>
        <mxCell id="yom7Caml82Irb-u9NkC1-21" style="edgeStyle=orthogonalEdgeStyle;rounded=0;orthogonalLoop=1;jettySize=auto;html=1;exitX=1;exitY=0.5;exitDx=0;exitDy=0;entryX=0;entryY=0.5;entryDx=0;entryDy=0;" edge="1" parent="1" source="yom7Caml82Irb-u9NkC1-13" target="yom7Caml82Irb-u9NkC1-14">
          <mxGeometry relative="1" as="geometry" />
        </mxCell>
        <mxCell id="yom7Caml82Irb-u9NkC1-13" value="" style="rounded=0;whiteSpace=wrap;html=1;" vertex="1" parent="1">
          <mxGeometry x="379" y="135" width="40" height="30" as="geometry" />
        </mxCell>
        <mxCell id="yom7Caml82Irb-u9NkC1-14" value="C" style="rounded=0;whiteSpace=wrap;html=1;" vertex="1" parent="1">
          <mxGeometry x="459" y="135" width="40" height="30" as="geometry" />
        </mxCell>
        <mxCell id="yom7Caml82Irb-u9NkC1-15" value="^" style="rounded=0;whiteSpace=wrap;html=1;" vertex="1" parent="1">
          <mxGeometry x="499" y="135" width="40" height="30" as="geometry" />
        </mxCell>
        <mxCell id="yom7Caml82Irb-u9NkC1-16" value="^" style="rounded=0;whiteSpace=wrap;html=1;" vertex="1" parent="1">
          <mxGeometry x="539" y="135" width="40" height="30" as="geometry" />
        </mxCell>
        <mxCell id="yom7Caml82Irb-u9NkC1-17" value="D" style="rounded=0;whiteSpace=wrap;html=1;" vertex="1" parent="1">
          <mxGeometry x="249" y="210" width="40" height="30" as="geometry" />
        </mxCell>
        <mxCell id="yom7Caml82Irb-u9NkC1-18" value="^" style="rounded=0;whiteSpace=wrap;html=1;" vertex="1" parent="1">
          <mxGeometry x="289" y="210" width="40" height="30" as="geometry" />
        </mxCell>
        <mxCell id="yom7Caml82Irb-u9NkC1-19" value="^" style="rounded=0;whiteSpace=wrap;html=1;" vertex="1" parent="1">
          <mxGeometry x="329" y="210" width="40" height="30" as="geometry" />
        </mxCell>
      </root>
    </mxGraphModel>
  </diagram>
</mxfile>
